<?xml version="1.0" encoding="UTF-8" standalone="no"?><svg xmlns="http://www.w3.org/2000/svg" xmlns:xlink="http://www.w3.org/1999/xlink" contentScriptType="application/ecmascript" contentStyleType="text/css" height="667px" preserveAspectRatio="none" style="width:725px;height:667px;" version="1.1" viewBox="0 0 725 667" width="725px" zoomAndPan="magnify"><defs/><g><!--MD5=[1c5be1afcacb244c6e9e84203a165aa3]
class Ventas--><rect codeLine="4" fill="#FEFECE" height="103.9922" id="Ventas" style="stroke: #A80036; stroke-width: 1.5;" width="134" x="7" y="397.5"/><text fill="#000000" font-family="sans-serif" font-size="12" lengthAdjust="spacingAndGlyphs" textLength="44" x="52" y="413.6387">Ventas</text><line style="stroke: #A80036; stroke-width: 1.5;" x1="8" x2="140" y1="421.4688" y2="421.4688"/><rect fill="none" height="6" style="stroke: #C82930; stroke-width: 1.0;" width="6" x="15" y="429.4688"/><text fill="#000000" font-family="sans-serif" font-size="11" lengthAdjust="spacingAndGlyphs" textLength="108" x="27" y="435.6792">producto: Producto</text><rect fill="none" height="6" style="stroke: #C82930; stroke-width: 1.0;" width="6" x="15" y="442.2734"/><text fill="#000000" font-family="sans-serif" font-size="11" lengthAdjust="spacingAndGlyphs" textLength="81" x="27" y="448.4839">precio: double</text><rect fill="none" height="6" style="stroke: #C82930; stroke-width: 1.0;" width="6" x="15" y="455.0781"/><text fill="#000000" font-family="sans-serif" font-size="11" lengthAdjust="spacingAndGlyphs" textLength="70" x="27" y="461.2886">cantidad: int</text><line style="stroke: #A80036; stroke-width: 1.5;" x1="8" x2="140" y1="467.8828" y2="467.8828"/><ellipse cx="18" cy="478.8828" fill="#84BE84" rx="3" ry="3" style="stroke: #038048; stroke-width: 1.0;"/><text fill="#000000" font-family="sans-serif" font-size="11" lengthAdjust="spacingAndGlyphs" textLength="46" x="27" y="482.0933">ventas()</text><ellipse cx="18" cy="491.6875" fill="#84BE84" rx="3" ry="3" style="stroke: #038048; stroke-width: 1.0;"/><text fill="#000000" font-family="sans-serif" font-size="11" lengthAdjust="spacingAndGlyphs" textLength="92" x="27" y="494.8979">registroVentas()</text><!--MD5=[aba8253125d43e5f3e83b96bc0d923b8]
class Almacen--><rect codeLine="12" fill="#FEFECE" height="103.9922" id="Almacen" style="stroke: #A80036; stroke-width: 1.5;" width="162" x="63" y="191"/><text fill="#000000" font-family="sans-serif" font-size="12" lengthAdjust="spacingAndGlyphs" textLength="53" x="117.5" y="207.1387">Almacen</text><line style="stroke: #A80036; stroke-width: 1.5;" x1="64" x2="224" y1="214.9688" y2="214.9688"/><rect fill="none" height="6" style="stroke: #C82930; stroke-width: 1.0;" width="6" x="71" y="222.9688"/><text fill="#000000" font-family="sans-serif" font-size="11" lengthAdjust="spacingAndGlyphs" textLength="136" x="83" y="229.1792">nombreEmpresa: string</text><rect fill="none" height="6" style="stroke: #C82930; stroke-width: 1.0;" width="6" x="71" y="235.7734"/><text fill="#000000" font-family="sans-serif" font-size="11" lengthAdjust="spacingAndGlyphs" textLength="92" x="83" y="241.9839">direccion: string</text><line style="stroke: #A80036; stroke-width: 1.5;" x1="64" x2="224" y1="248.5781" y2="248.5781"/><ellipse cx="74" cy="259.5781" fill="#84BE84" rx="3" ry="3" style="stroke: #038048; stroke-width: 1.0;"/><text fill="#000000" font-family="sans-serif" font-size="11" lengthAdjust="spacingAndGlyphs" textLength="46" x="83" y="262.7886">ventas()</text><ellipse cx="74" cy="272.3828" fill="#84BE84" rx="3" ry="3" style="stroke: #038048; stroke-width: 1.0;"/><text fill="#000000" font-family="sans-serif" font-size="11" lengthAdjust="spacingAndGlyphs" textLength="82" x="83" y="275.5933">recibirPedido()</text><ellipse cx="74" cy="285.1875" fill="#84BE84" rx="3" ry="3" style="stroke: #038048; stroke-width: 1.0;"/><text fill="#000000" font-family="sans-serif" font-size="11" lengthAdjust="spacingAndGlyphs" textLength="72" x="83" y="288.3979">recibirPago()</text><!--MD5=[a26d7a8585b446db7fc8ab4626d8ca8a]
class Pedido--><rect codeLine="20" fill="#FEFECE" height="103.9922" id="Pedido" style="stroke: #A80036; stroke-width: 1.5;" width="155" x="176.5" y="397.5"/><text fill="#000000" font-family="sans-serif" font-size="12" lengthAdjust="spacingAndGlyphs" textLength="43" x="232.5" y="413.6387">Pedido</text><line style="stroke: #A80036; stroke-width: 1.5;" x1="177.5" x2="330.5" y1="421.4688" y2="421.4688"/><rect fill="none" height="6" style="stroke: #C82930; stroke-width: 1.0;" width="6" x="184.5" y="429.4688"/><text fill="#000000" font-family="sans-serif" font-size="11" lengthAdjust="spacingAndGlyphs" textLength="108" x="196.5" y="435.6792">producto: Producto</text><rect fill="none" height="6" style="stroke: #C82930; stroke-width: 1.0;" width="6" x="184.5" y="442.2734"/><text fill="#000000" font-family="sans-serif" font-size="11" lengthAdjust="spacingAndGlyphs" textLength="70" x="196.5" y="448.4839">cantidad: int</text><rect fill="none" height="6" style="stroke: #C82930; stroke-width: 1.0;" width="6" x="184.5" y="455.0781"/><text fill="#000000" font-family="sans-serif" font-size="11" lengthAdjust="spacingAndGlyphs" textLength="129" x="196.5" y="461.2886">numeroDeSolicitud: int</text><line style="stroke: #A80036; stroke-width: 1.5;" x1="177.5" x2="330.5" y1="467.8828" y2="467.8828"/><ellipse cx="187.5" cy="478.8828" fill="#84BE84" rx="3" ry="3" style="stroke: #038048; stroke-width: 1.0;"/><text fill="#000000" font-family="sans-serif" font-size="11" lengthAdjust="spacingAndGlyphs" textLength="82" x="196.5" y="482.0933">recibirPedido()</text><ellipse cx="187.5" cy="491.6875" fill="#84BE84" rx="3" ry="3" style="stroke: #038048; stroke-width: 1.0;"/><text fill="#000000" font-family="sans-serif" font-size="11" lengthAdjust="spacingAndGlyphs" textLength="91" x="196.5" y="494.8979">registroPedido()</text><!--MD5=[625c262ad09f59a77a46e2472b88ce47]
class Existencias--><rect codeLine="28" fill="#FEFECE" height="103.9922" id="Existencias" style="stroke: #A80036; stroke-width: 1.5;" width="134" x="271" y="7"/><text fill="#000000" font-family="sans-serif" font-size="12" lengthAdjust="spacingAndGlyphs" textLength="70" x="303" y="23.1387">Existencias</text><line style="stroke: #A80036; stroke-width: 1.5;" x1="272" x2="404" y1="30.9688" y2="30.9688"/><rect fill="none" height="6" style="stroke: #C82930; stroke-width: 1.0;" width="6" x="279" y="38.9688"/><text fill="#000000" font-family="sans-serif" font-size="11" lengthAdjust="spacingAndGlyphs" textLength="108" x="291" y="45.1792">producto: Producto</text><rect fill="none" height="6" style="stroke: #C82930; stroke-width: 1.0;" width="6" x="279" y="51.7734"/><text fill="#000000" font-family="sans-serif" font-size="11" lengthAdjust="spacingAndGlyphs" textLength="81" x="291" y="57.9839">precio: double</text><rect fill="none" height="6" style="stroke: #C82930; stroke-width: 1.0;" width="6" x="279" y="64.5781"/><text fill="#000000" font-family="sans-serif" font-size="11" lengthAdjust="spacingAndGlyphs" textLength="70" x="291" y="70.7886">cantidad: int</text><line style="stroke: #A80036; stroke-width: 1.5;" x1="272" x2="404" y1="77.3828" y2="77.3828"/><ellipse cx="282" cy="88.3828" fill="#84BE84" rx="3" ry="3" style="stroke: #038048; stroke-width: 1.0;"/><text fill="#000000" font-family="sans-serif" font-size="11" lengthAdjust="spacingAndGlyphs" textLength="107" x="291" y="91.5933">registroDeVentas()</text><ellipse cx="282" cy="101.1875" fill="#84BE84" rx="3" ry="3" style="stroke: #038048; stroke-width: 1.0;"/><text fill="#000000" font-family="sans-serif" font-size="11" lengthAdjust="spacingAndGlyphs" textLength="72" x="291" y="104.3979">existencias()</text><!--MD5=[9884e166d189446fe4825863c8acf943]
class Producto--><rect codeLine="36" fill="#FEFECE" height="116.7969" id="Producto" style="stroke: #A80036; stroke-width: 1.5;" width="150" x="367" y="391"/><text fill="#000000" font-family="sans-serif" font-size="12" lengthAdjust="spacingAndGlyphs" textLength="57" x="413.5" y="407.1387">Producto</text><line style="stroke: #A80036; stroke-width: 1.5;" x1="368" x2="516" y1="414.9688" y2="414.9688"/><rect fill="none" height="6" style="stroke: #C82930; stroke-width: 1.0;" width="6" x="375" y="422.9688"/><text fill="#000000" font-family="sans-serif" font-size="11" lengthAdjust="spacingAndGlyphs" textLength="82" x="387" y="429.1792">idProducto: int</text><rect fill="none" height="6" style="stroke: #C82930; stroke-width: 1.0;" width="6" x="375" y="435.7734"/><text fill="#000000" font-family="sans-serif" font-size="11" lengthAdjust="spacingAndGlyphs" textLength="85" x="387" y="441.9839">nombre: string</text><rect fill="none" height="6" style="stroke: #C82930; stroke-width: 1.0;" width="6" x="375" y="448.5781"/><text fill="#000000" font-family="sans-serif" font-size="11" lengthAdjust="spacingAndGlyphs" textLength="81" x="387" y="454.7886">precio: double</text><rect fill="none" height="6" style="stroke: #C82930; stroke-width: 1.0;" width="6" x="375" y="461.3828"/><text fill="#000000" font-family="sans-serif" font-size="11" lengthAdjust="spacingAndGlyphs" textLength="124" x="387" y="467.5933">proveedor: Proveedor</text><line style="stroke: #A80036; stroke-width: 1.5;" x1="368" x2="516" y1="474.1875" y2="474.1875"/><ellipse cx="378" cy="485.1875" fill="#84BE84" rx="3" ry="3" style="stroke: #038048; stroke-width: 1.0;"/><text fill="#000000" font-family="sans-serif" font-size="11" lengthAdjust="spacingAndGlyphs" textLength="69" x="387" y="488.3979">asignacion()</text><ellipse cx="378" cy="497.9922" fill="#84BE84" rx="3" ry="3" style="stroke: #038048; stroke-width: 1.0;"/><text fill="#000000" font-family="sans-serif" font-size="11" lengthAdjust="spacingAndGlyphs" textLength="50" x="387" y="501.2026">retorno()</text><!--MD5=[7b0cc48cb7351fde3d1bdba59d66fae8]
class Inventario--><rect codeLine="45" fill="#FEFECE" height="78.3828" id="Inventario" style="stroke: #A80036; stroke-width: 1.5;" width="155" x="260.5" y="204"/><text fill="#000000" font-family="sans-serif" font-size="12" lengthAdjust="spacingAndGlyphs" textLength="62" x="307" y="220.1387">Inventario</text><line style="stroke: #A80036; stroke-width: 1.5;" x1="261.5" x2="414.5" y1="227.9688" y2="227.9688"/><rect fill="none" height="6" style="stroke: #C82930; stroke-width: 1.0;" width="6" x="268.5" y="235.9688"/><text fill="#000000" font-family="sans-serif" font-size="11" lengthAdjust="spacingAndGlyphs" textLength="129" x="280.5" y="242.1792">numeroDeSolicitud: int</text><line style="stroke: #A80036; stroke-width: 1.5;" x1="261.5" x2="414.5" y1="248.7734" y2="248.7734"/><ellipse cx="271.5" cy="259.7734" fill="#84BE84" rx="3" ry="3" style="stroke: #038048; stroke-width: 1.0;"/><text fill="#000000" font-family="sans-serif" font-size="11" lengthAdjust="spacingAndGlyphs" textLength="91" x="280.5" y="262.9839">registroPedido()</text><ellipse cx="271.5" cy="272.5781" fill="#84BE84" rx="3" ry="3" style="stroke: #038048; stroke-width: 1.0;"/><text fill="#000000" font-family="sans-serif" font-size="11" lengthAdjust="spacingAndGlyphs" textLength="72" x="280.5" y="275.7886">existencias()</text><!--MD5=[21174dace72aba80a8f72654e0d803f1]
class Proveedor--><rect codeLine="51" fill="#FEFECE" height="142.4063" id="Proveedor" style="stroke: #A80036; stroke-width: 1.5;" width="169" x="549.5" y="172"/><text fill="#000000" font-family="sans-serif" font-size="12" lengthAdjust="spacingAndGlyphs" textLength="64" x="602" y="188.1387">Proveedor</text><line style="stroke: #A80036; stroke-width: 1.5;" x1="550.5" x2="717.5" y1="195.9688" y2="195.9688"/><rect fill="none" height="6" style="stroke: #C82930; stroke-width: 1.0;" width="6" x="557.5" y="203.9688"/><text fill="#000000" font-family="sans-serif" font-size="11" lengthAdjust="spacingAndGlyphs" textLength="68" x="569.5" y="210.1792">telefono: int</text><rect fill="none" height="6" style="stroke: #C82930; stroke-width: 1.0;" width="6" x="557.5" y="216.7734"/><text fill="#000000" font-family="sans-serif" font-size="11" lengthAdjust="spacingAndGlyphs" textLength="40" x="569.5" y="222.9839">NIT: int</text><rect fill="none" height="6" style="stroke: #C82930; stroke-width: 1.0;" width="6" x="557.5" y="229.5781"/><text fill="#000000" font-family="sans-serif" font-size="11" lengthAdjust="spacingAndGlyphs" textLength="92" x="569.5" y="235.7886">direccion: string</text><rect fill="none" height="6" style="stroke: #C82930; stroke-width: 1.0;" width="6" x="557.5" y="242.3828"/><text fill="#000000" font-family="sans-serif" font-size="11" lengthAdjust="spacingAndGlyphs" textLength="70" x="569.5" y="248.5933">cantidad: int</text><rect fill="none" height="6" style="stroke: #C82930; stroke-width: 1.0;" width="6" x="557.5" y="255.1875"/><text fill="#000000" font-family="sans-serif" font-size="11" lengthAdjust="spacingAndGlyphs" textLength="108" x="569.5" y="261.3979">producto: Producto</text><rect fill="none" height="6" style="stroke: #C82930; stroke-width: 1.0;" width="6" x="557.5" y="267.9922"/><text fill="#000000" font-family="sans-serif" font-size="11" lengthAdjust="spacingAndGlyphs" textLength="143" x="569.5" y="274.2026">nombreProveedor: string</text><line style="stroke: #A80036; stroke-width: 1.5;" x1="550.5" x2="717.5" y1="280.7969" y2="280.7969"/><ellipse cx="560.5" cy="291.7969" fill="#84BE84" rx="3" ry="3" style="stroke: #038048; stroke-width: 1.0;"/><text fill="#000000" font-family="sans-serif" font-size="11" lengthAdjust="spacingAndGlyphs" textLength="79" x="569.5" y="295.0073">ventaDirecta()</text><ellipse cx="560.5" cy="304.6016" fill="#84BE84" rx="3" ry="3" style="stroke: #038048; stroke-width: 1.0;"/><text fill="#000000" font-family="sans-serif" font-size="11" lengthAdjust="spacingAndGlyphs" textLength="114" x="569.5" y="307.812">pedidosEspeciales()</text><!--MD5=[fdcda49d453d44c676d62f3f6af62207]
class Administrador--><rect codeLine="62" fill="#FEFECE" height="91.1875" id="Administrador" style="stroke: #A80036; stroke-width: 1.5;" width="164" x="552" y="404"/><text fill="#000000" font-family="sans-serif" font-size="12" lengthAdjust="spacingAndGlyphs" textLength="87" x="590.5" y="420.1387">Administrador</text><line style="stroke: #A80036; stroke-width: 1.5;" x1="553" x2="715" y1="427.9688" y2="427.9688"/><rect fill="none" height="6" style="stroke: #C82930; stroke-width: 1.0;" width="6" x="560" y="435.9688"/><text fill="#000000" font-family="sans-serif" font-size="11" lengthAdjust="spacingAndGlyphs" textLength="138" x="572" y="442.1792">proveedores: Proveedor</text><line style="stroke: #A80036; stroke-width: 1.5;" x1="553" x2="715" y1="448.7734" y2="448.7734"/><ellipse cx="563" cy="459.7734" fill="#84BE84" rx="3" ry="3" style="stroke: #038048; stroke-width: 1.0;"/><text fill="#000000" font-family="sans-serif" font-size="11" lengthAdjust="spacingAndGlyphs" textLength="124" x="572" y="462.9839">mantemientoControl()</text><ellipse cx="563" cy="472.5781" fill="#84BE84" rx="3" ry="3" style="stroke: #038048; stroke-width: 1.0;"/><text fill="#000000" font-family="sans-serif" font-size="11" lengthAdjust="spacingAndGlyphs" textLength="51" x="572" y="475.7886">compra()</text><ellipse cx="563" cy="485.3828" fill="#84BE84" rx="3" ry="3" style="stroke: #038048; stroke-width: 1.0;"/><text fill="#000000" font-family="sans-serif" font-size="11" lengthAdjust="spacingAndGlyphs" textLength="46" x="572" y="488.5933">pedido()</text><!--MD5=[e2e04970b1b3f4a5a26dfa860353efc5]
class Control--><rect codeLine="69" fill="#FEFECE" height="91.1875" id="Control" style="stroke: #A80036; stroke-width: 1.5;" width="150" x="559" y="569"/><text fill="#000000" font-family="sans-serif" font-size="12" lengthAdjust="spacingAndGlyphs" textLength="45" x="611.5" y="585.1387">Control</text><line style="stroke: #A80036; stroke-width: 1.5;" x1="560" x2="708" y1="592.9688" y2="592.9688"/><rect fill="none" height="6" style="stroke: #C82930; stroke-width: 1.0;" width="6" x="567" y="600.9688"/><text fill="#000000" font-family="sans-serif" font-size="11" lengthAdjust="spacingAndGlyphs" textLength="108" x="579" y="607.1792">producto: Producto</text><line style="stroke: #A80036; stroke-width: 1.5;" x1="560" x2="708" y1="613.7734" y2="613.7734"/><ellipse cx="570" cy="624.7734" fill="#84BE84" rx="3" ry="3" style="stroke: #038048; stroke-width: 1.0;"/><text fill="#000000" font-family="sans-serif" font-size="11" lengthAdjust="spacingAndGlyphs" textLength="124" x="579" y="627.9839">mantemientoControl()</text><ellipse cx="570" cy="637.5781" fill="#84BE84" rx="3" ry="3" style="stroke: #038048; stroke-width: 1.0;"/><text fill="#000000" font-family="sans-serif" font-size="11" lengthAdjust="spacingAndGlyphs" textLength="80" x="579" y="640.7886">actualizacion()</text><ellipse cx="570" cy="650.3828" fill="#84BE84" rx="3" ry="3" style="stroke: #038048; stroke-width: 1.0;"/><text fill="#000000" font-family="sans-serif" font-size="11" lengthAdjust="spacingAndGlyphs" textLength="71" x="579" y="653.5933">depuracion()</text><!--MD5=[713cd546e6e509b9f630de37fd803c25]
link Almacen to Ventas--><path codeLine="76" d="M120.95,295.13 C114.38,310.66 107.52,327.88 102,344 C96.68,359.54 91.73,376.66 87.51,392.46 " fill="none" id="Almacen-to-Ventas" style="stroke: #A80036; stroke-width: 1.0;"/><polygon fill="#A80036" points="86.23,397.32,92.4111,389.6523,87.5165,392.4884,84.6804,387.5938,86.23,397.32" style="stroke: #A80036; stroke-width: 1.0;"/><text fill="#000000" font-family="sans-serif" font-size="13" lengthAdjust="spacingAndGlyphs" textLength="38" x="103" y="357.0669">hace?</text><!--MD5=[de2d132e67a10529e262c982d77d9639]
link Almacen to Pedido--><path codeLine="77" d="M171.47,295.08 C187.49,324.84 207.69,362.41 224.1,392.92 " fill="none" id="Almacen-to-Pedido" style="stroke: #A80036; stroke-width: 1.0;"/><polygon fill="#A80036" points="226.5,397.37,225.7512,387.5496,224.1278,392.9686,218.7089,391.3452,226.5,397.37" style="stroke: #A80036; stroke-width: 1.0;"/><text fill="#000000" font-family="sans-serif" font-size="13" lengthAdjust="spacingAndGlyphs" textLength="41" x="207" y="357.0669">toma?</text><!--MD5=[e5c2fa3b0b146cb1ae3f17c7bda90c0d]
link Existencias to Almacen--><path codeLine="78" d="M283.44,111.18 C258.13,134.93 228.01,163.19 202.25,187.35 " fill="none" id="Existencias-to-Almacen" style="stroke: #A80036; stroke-width: 1.0;"/><polygon fill="#A80036" points="198.48,190.89,207.7753,187.6345,202.121,187.4632,202.2923,181.8089,198.48,190.89" style="stroke: #A80036; stroke-width: 1.0;"/><!--MD5=[0468596c74e61def45098cdaa2995e1c]
link Existencias to Producto--><path codeLine="79" d="M393.87,111.2 C409.44,128.82 424.42,149.76 433,172 C459.79,241.49 457.43,328.25 451.4,385.86 " fill="none" id="Existencias-to-Producto" style="stroke: #A80036; stroke-width: 1.0;"/><polygon fill="#A80036" points="450.85,390.99,455.8033,382.4774,451.3928,386.0195,447.8506,381.609,450.85,390.99" style="stroke: #A80036; stroke-width: 1.0;"/><!--MD5=[0b6121e4131033a98b08fa58294b31a9]
link Inventario to Pedido--><path codeLine="80" d="M322.2,282.46 C309.42,313.58 291.25,357.81 276.88,392.8 " fill="none" id="Inventario-to-Pedido" style="stroke: #A80036; stroke-width: 1.0;"/><polygon fill="#A80036" points="274.97,397.46,282.0955,390.6609,276.8737,392.8366,274.698,387.6149,274.97,397.46" style="stroke: #A80036; stroke-width: 1.0;"/><!--MD5=[e5da2a3529df3c6708eb4ae97a4b6fc8]
link Inventario to Producto--><path codeLine="81" d="M353.63,282.21 C363.42,305.33 376.68,335.23 390,361 C394.25,369.21 398.93,377.72 403.69,386.06 " fill="none" id="Inventario-to-Producto" style="stroke: #A80036; stroke-width: 1.0;"/><polygon fill="#A80036" points="406.34,390.68,405.3408,380.882,403.8562,386.3405,398.3977,384.856,406.34,390.68" style="stroke: #A80036; stroke-width: 1.0;"/><!--MD5=[d2bccde8f1e8dacd17e43fd05dad5e06]
link Existencias to Inventario--><path codeLine="82" d="M338,111.18 C338,138.78 338,172.47 338,198.74 " fill="none" id="Existencias-to-Inventario" style="stroke: #A80036; stroke-width: 1.0;"/><polygon fill="#A80036" points="338,203.9,342,194.9,338,198.9,334,194.9,338,203.9" style="stroke: #A80036; stroke-width: 1.0;"/><!--MD5=[f03cf389539fa91224c7feedc8c0a260]
link Proveedor to Administrador--><path codeLine="83" d="M634,314.09 C634,341.95 634,373.35 634,398.8 " fill="none" id="Proveedor-to-Administrador" style="stroke: #A80036; stroke-width: 1.0;"/><polygon fill="#A80036" points="634,403.8,638,394.8,634,398.8,630,394.8,634,403.8" style="stroke: #A80036; stroke-width: 1.0;"/><text fill="#000000" font-family="sans-serif" font-size="13" lengthAdjust="spacingAndGlyphs" textLength="75" x="635" y="357.0669">ManyToOne</text><!--MD5=[75b03736f65346f81cd29fe96660dbc9]
link Inventario to Administrador--><path codeLine="84" d="M393.33,282.22 C441.91,315.79 512.79,364.76 565.05,400.86 " fill="none" id="Inventario-to-Administrador" style="stroke: #A80036; stroke-width: 1.0;"/><polygon fill="#A80036" points="569.41,403.88,564.2795,395.473,565.2965,401.0377,559.7318,402.0546,569.41,403.88" style="stroke: #A80036; stroke-width: 1.0;"/><!--MD5=[650c07ce9a518f77dd5d28ff3716b266]
link Administrador to Control--><path codeLine="85" d="M634,495.04 C634,516.25 634,541.69 634,563.55 " fill="none" id="Administrador-to-Control" style="stroke: #A80036; stroke-width: 1.0;"/><polygon fill="#A80036" points="634,568.73,638,559.73,634,563.73,630,559.73,634,568.73" style="stroke: #A80036; stroke-width: 1.0;"/><!--MD5=[2e854a7fc6edeb4a16e0a0fa7ba5bfe5]
@startuml latercera
skinparam  Style strictuml
skinparam  SequenceMessageAlignment center

class Ventas{
    - producto: Producto
    - precio: double
    - cantidad: int
    +ventas()
    +registroVentas()
}

class Almacen{
    - nombreEmpresa: string
    - direccion: string
    +ventas()
    +recibirPedido()
    +recibirPago()
}

class Pedido{
    - producto: Producto
    - cantidad: int
    - numeroDeSolicitud: int
    +recibirPedido()
    +registroPedido()
}

class Existencias{
    -producto: Producto
    -precio: double
    -cantidad: int
    +registroDeVentas()
    +existencias()
}

class Producto{
    -idProducto: int
    -nombre: string
    -precio: double
    -proveedor: Proveedor
    +asignacion()
    +retorno()
}

class Inventario{
    -numeroDeSolicitud: int
    +registroPedido()
    +existencias()
}

class Proveedor{
    -telefono: int
    -NIT: int
    -direccion: string
    -cantidad: int
    -producto: Producto
    -nombreProveedor: string
    +ventaDirecta()
    +pedidosEspeciales()
}

class Administrador{
    -proveedores: Proveedor
    +mantemientoControl()
    +compra()
    +pedido()
}

class Control{
    -producto: Producto
    +mantemientoControl()
    +actualizacion()
    +depuracion()
}

Almacen- ->Ventas: hace?
Almacen- ->Pedido: toma?
Existencias- ->Almacen
Existencias- ->Producto
Inventario- ->Pedido
Inventario- ->Producto
Existencias- ->Inventario
Proveedor- ->Administrador: ManyToOne
Inventario- ->Administrador
Administrador- ->Control
@enduml

PlantUML version 1.2020.18(Wed Sep 30 16:40:44 ART 2020)
(GPL source distribution)
Java Runtime: OpenJDK Runtime Environment
JVM: OpenJDK 64-Bit Server VM
Default Encoding: UTF-8
Language: es
Country: AR
--></g></svg>