<?xml version="1.0" encoding="UTF-8" standalone="no"?><svg xmlns="http://www.w3.org/2000/svg" xmlns:xlink="http://www.w3.org/1999/xlink" contentScriptType="application/ecmascript" contentStyleType="text/css" height="641px" preserveAspectRatio="none" style="width:483px;height:641px;" version="1.1" viewBox="0 0 483 641" width="483px" zoomAndPan="magnify"><defs/><g><!--MD5=[1c5be1afcacb244c6e9e84203a165aa3]
class Ventas--><rect codeLine="4" fill="#FEFECE" height="103.9922" id="Ventas" style="stroke: #A80036; stroke-width: 1.5;" width="118" x="29" y="366"/><text fill="#000000" font-family="sans-serif" font-size="12" lengthAdjust="spacingAndGlyphs" textLength="44" x="66" y="382.1387">Ventas</text><line style="stroke: #A80036; stroke-width: 1.5;" x1="30" x2="146" y1="389.9688" y2="389.9688"/><rect fill="none" height="6" style="stroke: #C82930; stroke-width: 1.0;" width="6" x="37" y="397.9688"/><text fill="#000000" font-family="sans-serif" font-size="11" lengthAdjust="spacingAndGlyphs" textLength="91" x="49" y="404.1792">producto: string</text><rect fill="none" height="6" style="stroke: #C82930; stroke-width: 1.0;" width="6" x="37" y="410.7734"/><text fill="#000000" font-family="sans-serif" font-size="11" lengthAdjust="spacingAndGlyphs" textLength="81" x="49" y="416.9839">precio: double</text><rect fill="none" height="6" style="stroke: #C82930; stroke-width: 1.0;" width="6" x="37" y="423.5781"/><text fill="#000000" font-family="sans-serif" font-size="11" lengthAdjust="spacingAndGlyphs" textLength="70" x="49" y="429.7886">cantidad: int</text><line style="stroke: #A80036; stroke-width: 1.5;" x1="30" x2="146" y1="436.3828" y2="436.3828"/><ellipse cx="40" cy="447.3828" fill="#84BE84" rx="3" ry="3" style="stroke: #038048; stroke-width: 1.0;"/><text fill="#000000" font-family="sans-serif" font-size="11" lengthAdjust="spacingAndGlyphs" textLength="46" x="49" y="450.5933">ventas()</text><ellipse cx="40" cy="460.1875" fill="#84BE84" rx="3" ry="3" style="stroke: #038048; stroke-width: 1.0;"/><text fill="#000000" font-family="sans-serif" font-size="11" lengthAdjust="spacingAndGlyphs" textLength="92" x="49" y="463.3979">registroVentas()</text><!--MD5=[aba8253125d43e5f3e83b96bc0d923b8]
class Almacen--><rect codeLine="12" fill="#FEFECE" height="103.9922" id="Almacen" style="stroke: #A80036; stroke-width: 1.5;" width="162" x="7" y="178.5"/><text fill="#000000" font-family="sans-serif" font-size="12" lengthAdjust="spacingAndGlyphs" textLength="53" x="61.5" y="194.6387">Almacen</text><line style="stroke: #A80036; stroke-width: 1.5;" x1="8" x2="168" y1="202.4688" y2="202.4688"/><rect fill="none" height="6" style="stroke: #C82930; stroke-width: 1.0;" width="6" x="15" y="210.4688"/><text fill="#000000" font-family="sans-serif" font-size="11" lengthAdjust="spacingAndGlyphs" textLength="136" x="27" y="216.6792">nombreEmpresa: string</text><rect fill="none" height="6" style="stroke: #C82930; stroke-width: 1.0;" width="6" x="15" y="223.2734"/><text fill="#000000" font-family="sans-serif" font-size="11" lengthAdjust="spacingAndGlyphs" textLength="92" x="27" y="229.4839">direccion: string</text><line style="stroke: #A80036; stroke-width: 1.5;" x1="8" x2="168" y1="236.0781" y2="236.0781"/><ellipse cx="18" cy="247.0781" fill="#84BE84" rx="3" ry="3" style="stroke: #038048; stroke-width: 1.0;"/><text fill="#000000" font-family="sans-serif" font-size="11" lengthAdjust="spacingAndGlyphs" textLength="46" x="27" y="250.2886">ventas()</text><ellipse cx="18" cy="259.8828" fill="#84BE84" rx="3" ry="3" style="stroke: #038048; stroke-width: 1.0;"/><text fill="#000000" font-family="sans-serif" font-size="11" lengthAdjust="spacingAndGlyphs" textLength="82" x="27" y="263.0933">recibirPedido()</text><ellipse cx="18" cy="272.6875" fill="#84BE84" rx="3" ry="3" style="stroke: #038048; stroke-width: 1.0;"/><text fill="#000000" font-family="sans-serif" font-size="11" lengthAdjust="spacingAndGlyphs" textLength="72" x="27" y="275.8979">recibirPago()</text><!--MD5=[a26d7a8585b446db7fc8ab4626d8ca8a]
class Pedido--><rect codeLine="20" fill="#FEFECE" height="103.9922" id="Pedido" style="stroke: #A80036; stroke-width: 1.5;" width="155" x="168.5" y="531"/><text fill="#000000" font-family="sans-serif" font-size="12" lengthAdjust="spacingAndGlyphs" textLength="43" x="224.5" y="547.1387">Pedido</text><line style="stroke: #A80036; stroke-width: 1.5;" x1="169.5" x2="322.5" y1="554.9688" y2="554.9688"/><rect fill="none" height="6" style="stroke: #C82930; stroke-width: 1.0;" width="6" x="176.5" y="562.9688"/><text fill="#000000" font-family="sans-serif" font-size="11" lengthAdjust="spacingAndGlyphs" textLength="108" x="188.5" y="569.1792">producto: Producto</text><rect fill="none" height="6" style="stroke: #C82930; stroke-width: 1.0;" width="6" x="176.5" y="575.7734"/><text fill="#000000" font-family="sans-serif" font-size="11" lengthAdjust="spacingAndGlyphs" textLength="70" x="188.5" y="581.9839">cantidad: int</text><rect fill="none" height="6" style="stroke: #C82930; stroke-width: 1.0;" width="6" x="176.5" y="588.5781"/><text fill="#000000" font-family="sans-serif" font-size="11" lengthAdjust="spacingAndGlyphs" textLength="129" x="188.5" y="594.7886">numeroDeSolicitud: int</text><line style="stroke: #A80036; stroke-width: 1.5;" x1="169.5" x2="322.5" y1="601.3828" y2="601.3828"/><ellipse cx="179.5" cy="612.3828" fill="#84BE84" rx="3" ry="3" style="stroke: #038048; stroke-width: 1.0;"/><text fill="#000000" font-family="sans-serif" font-size="11" lengthAdjust="spacingAndGlyphs" textLength="82" x="188.5" y="615.5933">recibirPedido()</text><ellipse cx="179.5" cy="625.1875" fill="#84BE84" rx="3" ry="3" style="stroke: #038048; stroke-width: 1.0;"/><text fill="#000000" font-family="sans-serif" font-size="11" lengthAdjust="spacingAndGlyphs" textLength="91" x="188.5" y="628.3979">registroPedido()</text><!--MD5=[625c262ad09f59a77a46e2472b88ce47]
class Existencias--><rect codeLine="28" fill="#FEFECE" height="103.9922" id="Existencias" style="stroke: #A80036; stroke-width: 1.5;" width="134" x="212" y="7"/><text fill="#000000" font-family="sans-serif" font-size="12" lengthAdjust="spacingAndGlyphs" textLength="70" x="244" y="23.1387">Existencias</text><line style="stroke: #A80036; stroke-width: 1.5;" x1="213" x2="345" y1="30.9688" y2="30.9688"/><rect fill="none" height="6" style="stroke: #C82930; stroke-width: 1.0;" width="6" x="220" y="38.9688"/><text fill="#000000" font-family="sans-serif" font-size="11" lengthAdjust="spacingAndGlyphs" textLength="108" x="232" y="45.1792">producto: Producto</text><rect fill="none" height="6" style="stroke: #C82930; stroke-width: 1.0;" width="6" x="220" y="51.7734"/><text fill="#000000" font-family="sans-serif" font-size="11" lengthAdjust="spacingAndGlyphs" textLength="81" x="232" y="57.9839">precio: double</text><rect fill="none" height="6" style="stroke: #C82930; stroke-width: 1.0;" width="6" x="220" y="64.5781"/><text fill="#000000" font-family="sans-serif" font-size="11" lengthAdjust="spacingAndGlyphs" textLength="70" x="232" y="70.7886">cantidad: int</text><line style="stroke: #A80036; stroke-width: 1.5;" x1="213" x2="345" y1="77.3828" y2="77.3828"/><ellipse cx="223" cy="88.3828" fill="#84BE84" rx="3" ry="3" style="stroke: #038048; stroke-width: 1.0;"/><text fill="#000000" font-family="sans-serif" font-size="11" lengthAdjust="spacingAndGlyphs" textLength="107" x="232" y="91.5933">registroDeVentas()</text><ellipse cx="223" cy="101.1875" fill="#84BE84" rx="3" ry="3" style="stroke: #038048; stroke-width: 1.0;"/><text fill="#000000" font-family="sans-serif" font-size="11" lengthAdjust="spacingAndGlyphs" textLength="72" x="232" y="104.3979">existencias()</text><!--MD5=[9884e166d189446fe4825863c8acf943]
class Producto--><rect codeLine="36" fill="#FEFECE" height="116.7969" id="Producto" style="stroke: #A80036; stroke-width: 1.5;" width="150" x="204" y="172"/><text fill="#000000" font-family="sans-serif" font-size="12" lengthAdjust="spacingAndGlyphs" textLength="57" x="250.5" y="188.1387">Producto</text><line style="stroke: #A80036; stroke-width: 1.5;" x1="205" x2="353" y1="195.9688" y2="195.9688"/><rect fill="none" height="6" style="stroke: #C82930; stroke-width: 1.0;" width="6" x="212" y="203.9688"/><text fill="#000000" font-family="sans-serif" font-size="11" lengthAdjust="spacingAndGlyphs" textLength="82" x="224" y="210.1792">idProducto: int</text><rect fill="none" height="6" style="stroke: #C82930; stroke-width: 1.0;" width="6" x="212" y="216.7734"/><text fill="#000000" font-family="sans-serif" font-size="11" lengthAdjust="spacingAndGlyphs" textLength="85" x="224" y="222.9839">nombre: string</text><rect fill="none" height="6" style="stroke: #C82930; stroke-width: 1.0;" width="6" x="212" y="229.5781"/><text fill="#000000" font-family="sans-serif" font-size="11" lengthAdjust="spacingAndGlyphs" textLength="81" x="224" y="235.7886">precio: double</text><rect fill="none" height="6" style="stroke: #C82930; stroke-width: 1.0;" width="6" x="212" y="242.3828"/><text fill="#000000" font-family="sans-serif" font-size="11" lengthAdjust="spacingAndGlyphs" textLength="124" x="224" y="248.5933">proveedor: Proveedor</text><line style="stroke: #A80036; stroke-width: 1.5;" x1="205" x2="353" y1="255.1875" y2="255.1875"/><ellipse cx="215" cy="266.1875" fill="#84BE84" rx="3" ry="3" style="stroke: #038048; stroke-width: 1.0;"/><text fill="#000000" font-family="sans-serif" font-size="11" lengthAdjust="spacingAndGlyphs" textLength="69" x="224" y="269.3979">asignacion()</text><ellipse cx="215" cy="278.9922" fill="#84BE84" rx="3" ry="3" style="stroke: #038048; stroke-width: 1.0;"/><text fill="#000000" font-family="sans-serif" font-size="11" lengthAdjust="spacingAndGlyphs" textLength="50" x="224" y="282.2026">retorno()</text><!--MD5=[7b0cc48cb7351fde3d1bdba59d66fae8]
class Inventario--><rect codeLine="45" fill="#FEFECE" height="78.3828" id="Inventario" style="stroke: #A80036; stroke-width: 1.5;" width="155" x="321.5" y="379"/><text fill="#000000" font-family="sans-serif" font-size="12" lengthAdjust="spacingAndGlyphs" textLength="62" x="368" y="395.1387">Inventario</text><line style="stroke: #A80036; stroke-width: 1.5;" x1="322.5" x2="475.5" y1="402.9688" y2="402.9688"/><rect fill="none" height="6" style="stroke: #C82930; stroke-width: 1.0;" width="6" x="329.5" y="410.9688"/><text fill="#000000" font-family="sans-serif" font-size="11" lengthAdjust="spacingAndGlyphs" textLength="129" x="341.5" y="417.1792">numeroDeSolicitud: int</text><line style="stroke: #A80036; stroke-width: 1.5;" x1="322.5" x2="475.5" y1="423.7734" y2="423.7734"/><ellipse cx="332.5" cy="434.7734" fill="#84BE84" rx="3" ry="3" style="stroke: #038048; stroke-width: 1.0;"/><text fill="#000000" font-family="sans-serif" font-size="11" lengthAdjust="spacingAndGlyphs" textLength="91" x="341.5" y="437.9839">registroPedido()</text><ellipse cx="332.5" cy="447.5781" fill="#84BE84" rx="3" ry="3" style="stroke: #038048; stroke-width: 1.0;"/><text fill="#000000" font-family="sans-serif" font-size="11" lengthAdjust="spacingAndGlyphs" textLength="72" x="341.5" y="450.7886">existencias()</text><!--MD5=[21174dace72aba80a8f72654e0d803f1]
class Proveedor--><rect codeLine="51" fill="#FEFECE" height="39.9688" id="Proveedor" style="stroke: #A80036; stroke-width: 1.5;" width="70" x="381" y="39"/><text fill="#000000" font-family="sans-serif" font-size="12" lengthAdjust="spacingAndGlyphs" textLength="64" x="384" y="55.1387">Proveedor</text><line style="stroke: #A80036; stroke-width: 1.5;" x1="382" x2="450" y1="62.9688" y2="62.9688"/><line style="stroke: #A80036; stroke-width: 1.5;" x1="382" x2="450" y1="70.9688" y2="70.9688"/><!--MD5=[713cd546e6e509b9f630de37fd803c25]
link Almacen to Ventas--><path codeLine="53" d="M88,282.68 C88,306.91 88,335.91 88,360.75 " fill="none" id="Almacen-to-Ventas" style="stroke: #A80036; stroke-width: 1.0;"/><polygon fill="#A80036" points="88,365.99,92,356.99,88,360.99,84,356.99,88,365.99" style="stroke: #A80036; stroke-width: 1.0;"/><text fill="#000000" font-family="sans-serif" font-size="13" lengthAdjust="spacingAndGlyphs" textLength="38" x="89" y="332.0669">hace?</text><!--MD5=[de2d132e67a10529e262c982d77d9639]
link Almacen to Pedido--><path codeLine="54" d="M119.29,282.59 C133.8,307.32 150.73,337.71 164,366 C188.9,419.08 212.1,481.97 227.42,526.16 " fill="none" id="Almacen-to-Pedido" style="stroke: #A80036; stroke-width: 1.0;"/><polygon fill="#A80036" points="229.06,530.91,229.8755,521.095,227.4146,526.1885,222.3211,523.7276,229.06,530.91" style="stroke: #A80036; stroke-width: 1.0;"/><text fill="#000000" font-family="sans-serif" font-size="13" lengthAdjust="spacingAndGlyphs" textLength="41" x="209" y="422.5669">toma?</text><!--MD5=[e5c2fa3b0b146cb1ae3f17c7bda90c0d]
link Existencias to Almacen--><path codeLine="55" d="M221.43,111.09 C198.8,131.17 172.77,154.27 149.74,174.71 " fill="none" id="Existencias-to-Almacen" style="stroke: #A80036; stroke-width: 1.0;"/><polygon fill="#A80036" points="145.78,178.23,155.1698,175.2582,149.5233,174.9153,149.8662,169.2688,145.78,178.23" style="stroke: #A80036; stroke-width: 1.0;"/><!--MD5=[0468596c74e61def45098cdaa2995e1c]
link Existencias to Producto--><path codeLine="56" d="M279,111.32 C279,128.77 279,148.48 279,166.73 " fill="none" id="Existencias-to-Producto" style="stroke: #A80036; stroke-width: 1.0;"/><polygon fill="#A80036" points="279,171.84,283,162.84,279,166.84,275,162.84,279,171.84" style="stroke: #A80036; stroke-width: 1.0;"/><!--MD5=[0b6121e4131033a98b08fa58294b31a9]
link Inventario to Pedido--><path codeLine="57" d="M363.13,457.22 C343.59,478.03 319.08,504.14 297.53,527.1 " fill="none" id="Inventario-to-Pedido" style="stroke: #A80036; stroke-width: 1.0;"/><polygon fill="#A80036" points="294.1,530.75,303.1811,526.9377,297.5268,527.109,297.3555,521.4547,294.1,530.75" style="stroke: #A80036; stroke-width: 1.0;"/><!--MD5=[d2bccde8f1e8dacd17e43fd05dad5e06]
link Existencias to Inventario--><path codeLine="58" d="M332.2,111.23 C347.55,129 362.67,150.01 372,172 C400.12,238.27 402.94,323.23 401.57,373.71 " fill="none" id="Existencias-to-Inventario" style="stroke: #A80036; stroke-width: 1.0;"/><polygon fill="#A80036" points="401.42,378.79,405.7007,369.9201,401.5771,373.7925,397.7047,369.6688,401.42,378.79" style="stroke: #A80036; stroke-width: 1.0;"/><!--MD5=[1530c82d731e5fe17c5dbc29b4daee9d]
@startuml latercera
skinparam  Style strictuml
skinparam  SequenceMessageAlignment center

class Ventas{
    - producto: string
    - precio: double
    - cantidad: int
    +ventas()
    +registroVentas()
}

class Almacen{
    - nombreEmpresa: string
    - direccion: string
    +ventas()
    +recibirPedido()
    +recibirPago()
}

class Pedido{
    - producto: Producto
    - cantidad: int
    - numeroDeSolicitud: int
    +recibirPedido()
    +registroPedido()
}

class Existencias{
    -producto: Producto
    -precio: double
    -cantidad: int
    +registroDeVentas()
    +existencias()
}

class Producto{
    -idProducto: int
    -nombre: string
    -precio: double
    -proveedor: Proveedor
    +asignacion()
    +retorno()
}

class Inventario{
    -numeroDeSolicitud: int
    +registroPedido()
    +existencias()
}

class Proveedor{}

Almacen- ->Ventas: hace?
Almacen- ->Pedido: toma?
Existencias- ->Almacen
Existencias- ->Producto
Inventario- ->Pedido
Existencias- - ->Inventario
@enduml

PlantUML version 1.2020.18(Wed Sep 30 16:40:44 ART 2020)
(GPL source distribution)
Java Runtime: OpenJDK Runtime Environment
JVM: OpenJDK 64-Bit Server VM
Default Encoding: UTF-8
Language: es
Country: AR
--></g></svg>